HIERARCHY
ROOT Hips
{
  OFFSET 26.951 18.967 -268.395
  CHANNELS 6 Xposition Yposition Zposition Zrotation Xrotation Yrotation
  JOINT LeftUpLeg
  {
    OFFSET 4.869 -3.985 2.755
    CHANNELS 6 Xposition Yposition Zposition Zrotation Xrotation Yrotation
    JOINT LeftLeg
    {
      OFFSET 0.000 -47.769 0.000
      CHANNELS 6 Xposition Yposition Zposition Zrotation Xrotation Yrotation
      JOINT LeftFoot
      {
        OFFSET -0.000 -35.050 -0.000
        CHANNELS 6 Xposition Yposition Zposition Zrotation Xrotation Yrotation
        End Site
        {
          OFFSET 0.000 -8.038 4.641
        }
      }
    }
  }
  JOINT RightUpLeg
  {
    OFFSET -4.526 -4.270 3.454
    CHANNELS 6 Xposition Yposition Zposition Zrotation Xrotation Yrotation
    JOINT RightLeg
    {
      OFFSET -0.000 -41.022 0.000
      CHANNELS 6 Xposition Yposition Zposition Zrotation Xrotation Yrotation
      JOINT RightFoot
      {
        OFFSET -0.000 -32.535 -0.000
        CHANNELS 6 Xposition Yposition Zposition Zrotation Xrotation Yrotation
        End Site
        {
          OFFSET 0.000 -7.534 4.350
        }
      }
    }
  }
  JOINT Spine
  {
    OFFSET 0.000 5.380 -5.380
    CHANNELS 6 Xposition Yposition Zposition Zrotation Xrotation Yrotation
    JOINT LeftShoulder
    {
      OFFSET -0.000 36.436 0.000
      CHANNELS 6 Xposition Yposition Zposition Zrotation Xrotation Yrotation
      JOINT LeftArm
      {
        OFFSET 15.695 0.000 -0.000
        CHANNELS 6 Xposition Yposition Zposition Zrotation Xrotation Yrotation
        JOINT LeftForeArm
        {
          OFFSET 23.043 0.000 0.000
          CHANNELS 6 Xposition Yposition Zposition Zrotation Xrotation Yrotation
          JOINT LeftHand
          {
            OFFSET 21.022 -0.000 -0.000
            CHANNELS 6 Xposition Yposition Zposition Zrotation Xrotation Yrotation
            JOINT LeftHandThumb1
            {
            OFFSET 4.970 -0.620 3.390
            CHANNELS 6 Xposition Yposition Zposition Zrotation Xrotation Yrotation
              JOINT LeftHandThumb2
              {
              OFFSET 2.150 -0.000 0.000
              CHANNELS 6 Xposition Yposition Zposition Zrotation Xrotation Yrotation
                JOINT LeftHandThumb3
                {
                OFFSET 2.200 -0.000 0.000
                CHANNELS 6 Xposition Yposition Zposition Zrotation Xrotation Yrotation
                  JOINT LeftHandThumb4
                  {
                  OFFSET 1.700 -0.000 0.000
                  CHANNELS 6 Xposition Yposition Zposition Zrotation Xrotation Yrotation
                  }
                }
              }
            }
            JOINT LeftHandIndex1
            {
            OFFSET 8.730 0.680 2.070
            CHANNELS 6 Xposition Yposition Zposition Zrotation Xrotation Yrotation
              JOINT LeftHandIndex2
              {
              OFFSET 2.670 -0.000 0.000
              CHANNELS 6 Xposition Yposition Zposition Zrotation Xrotation Yrotation
                JOINT LeftHandIndex3
                {
                OFFSET 2.130 -0.000 0.000
                CHANNELS 6 Xposition Yposition Zposition Zrotation Xrotation Yrotation
                  JOINT LeftHandIndex4
                  {
                  OFFSET 1.800 -0.000 0.000
                  CHANNELS 6 Xposition Yposition Zposition Zrotation Xrotation Yrotation
                  }
                }
              }
            }
            JOINT LeftHandMiddle1
            {
            OFFSET 9.220 0.670 0.550
            CHANNELS 6 Xposition Yposition Zposition Zrotation Xrotation Yrotation
              JOINT LeftHandMiddle2
              {
              OFFSET 2.660 -0.000 0.000
              CHANNELS 6 Xposition Yposition Zposition Zrotation Xrotation Yrotation
                JOINT LeftHandMiddle3
                {
                OFFSET 2.280 -0.000 0.000
                CHANNELS 6 Xposition Yposition Zposition Zrotation Xrotation Yrotation
                  JOINT LeftHandMiddle4
                  {
                  OFFSET 1.500 -0.000 0.000
                  CHANNELS 6 Xposition Yposition Zposition Zrotation Xrotation Yrotation
                  }
                }
              }
            }
            JOINT LeftHandRing1
            {
            OFFSET 9.250 0.670 -1.130
            CHANNELS 6 Xposition Yposition Zposition Zrotation Xrotation Yrotation
              JOINT LeftHandRing2
              {
              OFFSET 2.470 -0.000 0.000
              CHANNELS 6 Xposition Yposition Zposition Zrotation Xrotation Yrotation
                JOINT LeftHandRing3
                {
                OFFSET 2.210 -0.000 0.000
                CHANNELS 6 Xposition Yposition Zposition Zrotation Xrotation Yrotation
                  JOINT LeftHandRing4
                  {
                  OFFSET 1.800 -0.000 0.000
                  CHANNELS 6 Xposition Yposition Zposition Zrotation Xrotation Yrotation
                  }
                }
              }
            }
            JOINT LeftHandPinky1
            {
            OFFSET 9.350 0.660 -2.720
            CHANNELS 6 Xposition Yposition Zposition Zrotation Xrotation Yrotation
              JOINT LeftHandPinky2
              {
              OFFSET 1.630 -0.000 0.000
              CHANNELS 6 Xposition Yposition Zposition Zrotation Xrotation Yrotation
                JOINT LeftHandPinky3
                {
                OFFSET 1.710 -0.000 0.000
                CHANNELS 6 Xposition Yposition Zposition Zrotation Xrotation Yrotation
                  JOINT LeftHandPinky4
                  {
                  OFFSET 1.800 -0.000 0.000
                  CHANNELS 6 Xposition Yposition Zposition Zrotation Xrotation Yrotation
                  }
                }
              }
            }
          }
        }
      }
    }
    JOINT RightShoulder
    {
      OFFSET -0.000 36.436 0.000
      CHANNELS 6 Xposition Yposition Zposition Zrotation Xrotation Yrotation
      JOINT RightArm
      {
        OFFSET -16.670 0.000 -0.000
        CHANNELS 6 Xposition Yposition Zposition Zrotation Xrotation Yrotation
        JOINT RightForeArm
        {
          OFFSET -25.367 0.000 0.000
          CHANNELS 6 Xposition Yposition Zposition Zrotation Xrotation Yrotation
          JOINT RightHand
          {
            OFFSET -21.945 0.000 -0.000
            CHANNELS 6 Xposition Yposition Zposition Zrotation Xrotation Yrotation
            JOINT RightHandThumb1
            {
            OFFSET -4.970 -0.620 3.390
            CHANNELS 6 Xposition Yposition Zposition Zrotation Xrotation Yrotation
              JOINT RightHandThumb2
              {
              OFFSET -2.150 0.000 0.000
              CHANNELS 6 Xposition Yposition Zposition Zrotation Xrotation Yrotation
                JOINT RightHandThumb3
                {
                OFFSET -2.200 0.000 0.000
                CHANNELS 6 Xposition Yposition Zposition Zrotation Xrotation Yrotation
                  JOINT RightHandThumb4
                  {
                  OFFSET -1.700 0.000 0.000
                  CHANNELS 6 Xposition Yposition Zposition Zrotation Xrotation Yrotation
                  }
                }
              }
            }
            JOINT RightHandIndex1
            {
            OFFSET -8.730 0.680 2.070
            CHANNELS 6 Xposition Yposition Zposition Zrotation Xrotation Yrotation
              JOINT RightHandIndex2
              {
              OFFSET -2.670 0.000 0.000
              CHANNELS 6 Xposition Yposition Zposition Zrotation Xrotation Yrotation
                JOINT RightHandIndex3
                {
                OFFSET -2.130 0.000 0.000
                CHANNELS 6 Xposition Yposition Zposition Zrotation Xrotation Yrotation
                  JOINT RightHandIndex4
                  {
                  OFFSET -1.800 0.000 0.000
                  CHANNELS 6 Xposition Yposition Zposition Zrotation Xrotation Yrotation
                  }
                }
              }
            }
            JOINT RightHandMiddle1
            {
            OFFSET -9.220 0.670 0.550
            CHANNELS 6 Xposition Yposition Zposition Zrotation Xrotation Yrotation
              JOINT RightHandMiddle2
              {
              OFFSET -2.660 0.000 0.000
              CHANNELS 6 Xposition Yposition Zposition Zrotation Xrotation Yrotation
                JOINT RightHandMiddle3
                {
                OFFSET -2.280 0.000 0.000
                CHANNELS 6 Xposition Yposition Zposition Zrotation Xrotation Yrotation
                  JOINT RightHandMiddle4
                  {
                  OFFSET -1.500 0.000 0.000
                  CHANNELS 6 Xposition Yposition Zposition Zrotation Xrotation Yrotation
                  }
                }
              }
            }
            JOINT RightHandRing1
            {
            OFFSET -9.250 0.670 -1.130
            CHANNELS 6 Xposition Yposition Zposition Zrotation Xrotation Yrotation
              JOINT RightHandRing2
              {
              OFFSET -2.470 0.000 0.000
              CHANNELS 6 Xposition Yposition Zposition Zrotation Xrotation Yrotation
                JOINT RightHandRing3
                {
                OFFSET -2.210 0.000 0.000
                CHANNELS 6 Xposition Yposition Zposition Zrotation Xrotation Yrotation
                  JOINT RightHandRing4
                  {
                  OFFSET -1.800 0.000 0.000
                  CHANNELS 6 Xposition Yposition Zposition Zrotation Xrotation Yrotation
                  }
                }
              }
            }
            JOINT RightHandPinky1
            {
            OFFSET -9.350 0.660 -2.720
            CHANNELS 6 Xposition Yposition Zposition Zrotation Xrotation Yrotation
              JOINT RightHandPinky2
              {
              OFFSET -1.630 0.000 0.000
              CHANNELS 6 Xposition Yposition Zposition Zrotation Xrotation Yrotation
                JOINT RightHandPinky3
                {
                OFFSET -1.710 0.000 0.000
                CHANNELS 6 Xposition Yposition Zposition Zrotation Xrotation Yrotation
                  JOINT RightHandPinky4
                  {
                  OFFSET -1.800 0.000 0.000
                  CHANNELS 6 Xposition Yposition Zposition Zrotation Xrotation Yrotation
                  }
                }
              }
            }
          }
        }
      }
    }
    JOINT Neck
    {
      OFFSET -0.000 36.436 0.000
      CHANNELS 6 Xposition Yposition Zposition Zrotation Xrotation Yrotation
      JOINT Head
      {
        OFFSET -0.000 17.470 -0.000
        CHANNELS 6 Xposition Yposition Zposition Zrotation Xrotation Yrotation
        End Site
        {
          OFFSET -0.000 0.070 -0.000
        }
      }
    }
  }
}
MOTION
Frames:	6
Frame Time:	0.0333333
52.7323 14.8908 -256.113 10.6037 6.22722 -42.3146 3.58725 -3.62352 0.00758171 0.212074 2.28542 19.3648 -5.96046e-06 -51.3832 -2.38419e-05 5.96722 -16.1204 -7.10974e-06 1.78814e-05 -30.2487 0 -18.0096 -30.4808 -18.5615 -3.59128 -3.99551 2.35512 -0.60958 -14.484 14.4636 2.38419e-05 -43.5518 -4.76837e-05 -14.327 -6.03498 -8.58532e-06 -1.78814e-05 -35.9041 -4.76837e-05 -9.84361 -11.3198 -7.58448 1.19209e-05 6.32079 -6.32076 -0.893445 -11.4689 1.14512 -1.19209e-05 36.4363 -2.38419e-05 -40.3112 1.19528e-05 -30.5026 11.9303 8.9407e-06 0 -22.6805 59.3069 -14.4798 21.9183 2.38419e-05 -5.96046e-06 -1.29651e-05 5.52651e-06 -104.341 22.6236 -1.19209e-05 -1.19209e-05 18.15 -0.00955896 -16.9806 0.0062 0.0497 0.0339 0 0 0 0 0.0215 0 0 0 0 0 0.022 0 0 0 0 0 0.017 0 0 0 0 -0.0068 0.0873 0.0207 0 0 0 0 0.0267 0 0 0 0 0 0.0213 0 0 0 0 0 0.018 0 0 0 0 -0.0067 0.0922 0.0055 0 0 0 0 0.0266 0 0 0 0 0 0.0228 0 0 0 0 0 0.015 0 0 0 0 -0.0067 0.0925 -0.0113 0 0 0 0 0.0247 0 0 0 0 0 0.0221 0 0 0 0 0 0.018 0 0 0 0 -0.0066 0.0935 -0.0272 0 0 0 0 0.0163 0 0 0 0 0 0.0171 0 0 0 0 0 0.018 0 0 0 0 -1.19209e-05 36.4363 -2.38419e-05 27.9814 1.70755e-06 20.0699 -17.6461 2.38419e-05 0 150.902 -55.9244 52.8963 -32.6476 1.19209e-05 -5.96046e-06 -1.11949e-05 -4.31515e-06 149.484 -24.0851 -2.38419e-05 -1.19209e-05 -6.36566 -0.0219735 -2.22347 -0.0062 0.0497 0.0339 0 0 0 0 0.0215 0 0 0 0 0 0.022 0 0 0 0 0 0.017 0 0 0 0 0.0068 0.0873 0.0207 0 0 0 0 0.0267 0 0 0 0 0 0.0213 0 0 0 0 0 0.018 0 0 0 0 0.0067 0.0922 0.0055 0 0 0 0 0.0266 0 0 0 0 0 0.0228 0 0 0 0 0 0.015 0 0 0 0 0.0067 0.0925 -0.0113 0 0 0 0 0.0247 0 0 0 0 0 0.0221 0 0 0 0 0 0.018 0 0 0 0 0.0066 0.0935 -0.0272 0 0 0 0 0.0163 0 0 0 0 0 0.0171 0 0 0 0 0 0.018 0 0 0 0 -1.19209e-05 36.4363 -2.38419e-05 5.90373 6.49197 -0.669835 -1.19209e-05 22.6883 -2.38419e-05 8.88458e-06 -1.22196e-05 -1.70755e-05 
52.8201 14.4844 -256.301 10.7065 5.80124 -42.5301 3.53434 -3.48679 -0.0889063 0.109555 2.33566 19.7963 2.68221e-05 -51.4239 7.15256e-05 5.77432 -16.3175 1.77921e-06 -1.19209e-05 -30.1411 0 -18.053 -30.5674 -18.6184 -3.59259 -4.14859 2.38533 -0.737561 -14.3031 14.692 1.78814e-05 -42.6985 2.38419e-05 -13.7966 -6.18968 -3.43512e-06 -1.78814e-05 -34.8462 7.15256e-05 -8.47678 -14.3715 -6.95466 -2.38419e-05 6.37452 -6.37455 -1.25146 -10.8367 1.51766 1.19209e-05 36.4363 4.76837e-05 -38.5615 1.70755e-05 -31.1353 11.8256 5.96046e-06 -2.38419e-05 -23.8508 58.3768 -15.1963 21.7717 1.19209e-05 0 5.80401e-05 -2.03981e-06 -103.637 22.2681 1.19209e-05 -1.19209e-05 17.1146 -0.0114439 -17.6809 0.0062 0.0497 0.0339 0 0 0 0 0.0215 0 0 0 0 0 0.022 0 0 0 0 0 0.017 0 0 0 0 -0.0068 0.0873 0.0207 0 0 0 0 0.0267 0 0 0 0 0 0.0213 0 0 0 0 0 0.018 0 0 0 0 -0.0067 0.0922 0.0055 0 0 0 0 0.0266 0 0 0 0 0 0.0228 0 0 0 0 0 0.015 0 0 0 0 -0.0067 0.0925 -0.0113 0 0 0 0 0.0247 0 0 0 0 0 0.0221 0 0 0 0 0 0.018 0 0 0 0 -0.0066 0.0935 -0.0272 0 0 0 0 0.0163 0 0 0 0 0 0.0171 0 0 0 0 0 0.018 0 0 0 0 1.19209e-05 36.4363 4.76837e-05 28.2123 -4.26887e-06 20.3242 -17.6043 0 0 150.349 -55.2586 52.8537 -32.5342 4.76837e-05 0 1.29353e-05 7.51634e-06 150.319 -24.0869 0 -4.76837e-05 -5.78565 -0.0076153 -2.3999 -0.0062 0.0497 0.0339 0 0 0 0 0.0215 0 0 0 0 0 0.022 0 0 0 0 0 0.017 0 0 0 0 0.0068 0.0873 0.0207 0 0 0 0 0.0267 0 0 0 0 0 0.0213 0 0 0 0 0 0.018 0 0 0 0 0.0067 0.0922 0.0055 0 0 0 0 0.0266 0 0 0 0 0 0.0228 0 0 0 0 0 0.015 0 0 0 0 0.0067 0.0925 -0.0113 0 0 0 0 0.0247 0 0 0 0 0 0.0221 0 0 0 0 0 0.018 0 0 0 0 0.0066 0.0935 -0.0272 0 0 0 0 0.0163 0 0 0 0 0 0.0171 0 0 0 0 0 0.018 0 0 0 0 1.19209e-05 36.4363 4.76837e-05 5.73007 5.91318 -0.592281 -3.57628e-05 23.0671 2.38419e-05 9.39151e-06 -8.77786e-06 6.83019e-06 
52.9222 14.419 -256.578 10.6963 6.08249 -42.7238 3.46544 -3.36199 -0.165629 0.457128 1.83095 20.1915 -5.96046e-06 -51.4341 2.38419e-05 6.09931 -16.2655 1.42299e-05 -1.78814e-05 -30.118 2.38419e-05 -18.4232 -27.1009 -18.1888 -3.54563 -4.10507 2.33548 -0.327927 -14.7812 15.0161 5.96046e-06 -42.5656 2.38419e-05 -13.5804 -6.06705 -3.43433e-06 -5.96046e-06 -34.4946 0 -8.03422 -15.5367 -6.73331 0 6.41585 -6.41584 -1.27621 -10.923 1.67591 1.19209e-05 36.4363 0 -38.7264 1.36604e-05 -32.1812 11.861 -8.9407e-06 1.19209e-05 -24.9546 58.3195 -13.6395 21.7105 0 -1.19209e-05 2.83404e-05 8.50395e-06 -103.674 22.334 1.19209e-05 4.76837e-05 16.9767 -0.0102342 -17.8187 0.0062 0.0497 0.0339 0 0 0 0 0.0215 0 0 0 0 0 0.022 0 0 0 0 0 0.017 0 0 0 0 -0.0068 0.0873 0.0207 0 0 0 0 0.0267 0 0 0 0 0 0.0213 0 0 0 0 0 0.018 0 0 0 0 -0.0067 0.0922 0.0055 0 0 0 0 0.0266 0 0 0 0 0 0.0228 0 0 0 0 0 0.015 0 0 0 0 -0.0067 0.0925 -0.0113 0 0 0 0 0.0247 0 0 0 0 0 0.0221 0 0 0 0 0 0.018 0 0 0 0 -0.0066 0.0935 -0.0272 0 0 0 0 0.0163 0 0 0 0 0 0.0171 0 0 0 0 0 0.018 0 0 0 0 1.19209e-05 36.4363 0 28.4174 1.70755e-06 20.8875 -17.7183 -1.19209e-05 0 151.607 -55.5197 54.1913 -32.4686 -4.76837e-05 5.96046e-06 -4.38961e-06 7.52888e-06 150.487 -24.2176 3.57628e-05 0 -5.37329 -0.00672687 -2.23174 -0.0062 0.0497 0.0339 0 0 0 0 0.0215 0 0 0 0 0 0.022 0 0 0 0 0 0.017 0 0 0 0 0.0068 0.0873 0.0207 0 0 0 0 0.0267 0 0 0 0 0 0.0213 0 0 0 0 0 0.018 0 0 0 0 0.0067 0.0922 0.0055 0 0 0 0 0.0266 0 0 0 0 0 0.0228 0 0 0 0 0 0.015 0 0 0 0 0.0067 0.0925 -0.0113 0 0 0 0 0.0247 0 0 0 0 0 0.0221 0 0 0 0 0 0.018 0 0 0 0 0.0066 0.0935 -0.0272 0 0 0 0 0.0163 0 0 0 0 0 0.0171 0 0 0 0 0 0.018 0 0 0 0 1.19209e-05 36.4363 0 6.36589 6.21061 -0.691496 -1.19209e-05 23.1687 -2.38419e-05 1.00052e-05 -9.39151e-06 -1.70755e-06 
52.9222 14.419 -256.578 10.6963 6.08249 -42.7238 3.46544 -3.36199 -0.165629 0.457128 1.83095 20.1915 -5.96046e-06 -51.4341 2.38419e-05 6.09931 -16.2655 1.42299e-05 -1.78814e-05 -30.118 2.38419e-05 -18.4232 -27.1009 -18.1888 -3.54563 -4.10507 2.33548 -0.327927 -14.7812 15.0161 5.96046e-06 -42.5656 2.38419e-05 -13.5804 -6.06705 -3.43433e-06 -5.96046e-06 -34.4946 0 -8.03422 -15.5367 -6.73331 0 6.41585 -6.41584 -1.27621 -10.923 1.67591 1.19209e-05 36.4363 0 -38.7264 1.36604e-05 -32.1812 11.861 -8.9407e-06 1.19209e-05 -24.9546 58.3195 -13.6395 21.7105 0 -1.19209e-05 2.83404e-05 8.50395e-06 -103.674 22.334 1.19209e-05 4.76837e-05 16.9767 -0.0102342 -17.8187 0.0062 0.0497 0.0339 0 0 0 0 0.0215 0 0 0 0 0 0.022 0 0 0 0 0 0.017 0 0 0 0 -0.0068 0.0873 0.0207 0 0 0 0 0.0267 0 0 0 0 0 0.0213 0 0 0 0 0 0.018 0 0 0 0 -0.0067 0.0922 0.0055 0 0 0 0 0.0266 0 0 0 0 0 0.0228 0 0 0 0 0 0.015 0 0 0 0 -0.0067 0.0925 -0.0113 0 0 0 0 0.0247 0 0 0 0 0 0.0221 0 0 0 0 0 0.018 0 0 0 0 -0.0066 0.0935 -0.0272 0 0 0 0 0.0163 0 0 0 0 0 0.0171 0 0 0 0 0 0.018 0 0 0 0 1.19209e-05 36.4363 0 28.4174 1.70755e-06 20.8875 -17.7183 -1.19209e-05 0 151.607 -55.5197 54.1913 -32.4686 -4.76837e-05 5.96046e-06 -4.38961e-06 7.52888e-06 150.487 -24.2176 3.57628e-05 0 -5.37329 -0.00672687 -2.23174 -0.0062 0.0497 0.0339 0 0 0 0 0.0215 0 0 0 0 0 0.022 0 0 0 0 0 0.017 0 0 0 0 0.0068 0.0873 0.0207 0 0 0 0 0.0267 0 0 0 0 0 0.0213 0 0 0 0 0 0.018 0 0 0 0 0.0067 0.0922 0.0055 0 0 0 0 0.0266 0 0 0 0 0 0.0228 0 0 0 0 0 0.015 0 0 0 0 0.0067 0.0925 -0.0113 0 0 0 0 0.0247 0 0 0 0 0 0.0221 0 0 0 0 0 0.018 0 0 0 0 0.0066 0.0935 -0.0272 0 0 0 0 0.0163 0 0 0 0 0 0.0171 0 0 0 0 0 0.018 0 0 0 0 1.19209e-05 36.4363 0 6.36589 6.21061 -0.691496 -1.19209e-05 23.1687 -2.38419e-05 1.00052e-05 -9.39151e-06 -1.70755e-06 
52.9222 14.419 -256.578 10.6963 6.08249 -42.7238 3.46544 -3.36199 -0.165629 0.457128 1.83095 20.1915 -5.96046e-06 -51.4341 2.38419e-05 6.09931 -16.2655 1.42299e-05 -1.78814e-05 -30.118 2.38419e-05 -18.4232 -27.1009 -18.1888 -3.54563 -4.10507 2.33548 -0.327927 -14.7812 15.0161 5.96046e-06 -42.5656 2.38419e-05 -13.5804 -6.06705 -3.43433e-06 -5.96046e-06 -34.4946 0 -8.03422 -15.5367 -6.73331 0 6.41585 -6.41584 -1.27621 -10.923 1.67591 1.19209e-05 36.4363 0 -38.7264 1.36604e-05 -32.1812 11.861 -8.9407e-06 1.19209e-05 -24.9546 58.3195 -13.6395 21.7105 0 -1.19209e-05 2.83404e-05 8.50395e-06 -103.674 22.334 1.19209e-05 4.76837e-05 16.9767 -0.0102342 -17.8187 0.0062 0.0497 0.0339 0 0 0 0 0.0215 0 0 0 0 0 0.022 0 0 0 0 0 0.017 0 0 0 0 -0.0068 0.0873 0.0207 0 0 0 0 0.0267 0 0 0 0 0 0.0213 0 0 0 0 0 0.018 0 0 0 0 -0.0067 0.0922 0.0055 0 0 0 0 0.0266 0 0 0 0 0 0.0228 0 0 0 0 0 0.015 0 0 0 0 -0.0067 0.0925 -0.0113 0 0 0 0 0.0247 0 0 0 0 0 0.0221 0 0 0 0 0 0.018 0 0 0 0 -0.0066 0.0935 -0.0272 0 0 0 0 0.0163 0 0 0 0 0 0.0171 0 0 0 0 0 0.018 0 0 0 0 1.19209e-05 36.4363 0 28.4174 1.70755e-06 20.8875 -17.7183 -1.19209e-05 0 151.607 -55.5197 54.1913 -32.4686 -4.76837e-05 5.96046e-06 -4.38961e-06 7.52888e-06 150.487 -24.2176 3.57628e-05 0 -5.37329 -0.00672687 -2.23174 -0.0062 0.0497 0.0339 0 0 0 0 0.0215 0 0 0 0 0 0.022 0 0 0 0 0 0.017 0 0 0 0 0.0068 0.0873 0.0207 0 0 0 0 0.0267 0 0 0 0 0 0.0213 0 0 0 0 0 0.018 0 0 0 0 0.0067 0.0922 0.0055 0 0 0 0 0.0266 0 0 0 0 0 0.0228 0 0 0 0 0 0.015 0 0 0 0 0.0067 0.0925 -0.0113 0 0 0 0 0.0247 0 0 0 0 0 0.0221 0 0 0 0 0 0.018 0 0 0 0 0.0066 0.0935 -0.0272 0 0 0 0 0.0163 0 0 0 0 0 0.0171 0 0 0 0 0 0.018 0 0 0 0 1.19209e-05 36.4363 0 6.36589 6.21061 -0.691496 -1.19209e-05 23.1687 -2.38419e-05 1.00052e-05 -9.39151e-06 -1.70755e-06 
52.8767 14.4173 -257.041 10.5479 6.4686 -42.828 3.41103 -3.25931 -0.236678 1.08402 1.36492 20.9214 2.38419e-05 -51.4586 0 5.85888 -15.9494 1.77591e-06 0 -30.0635 2.38419e-05 -18.8975 -24.9439 -18.229 -3.54283 -3.90832 2.32139 0.13912 -15.7638 16.3039 0 -43.3559 -7.15256e-05 -13.7466 -4.66865 0 -1.19209e-05 -34.9329 -4.76837e-05 -7.35861 -17.7551 -6.38943 0 6.49504 -6.49507 -1.38488 -10.9617 2.00845 -3.57628e-05 36.4363 2.38419e-05 -39.1076 1.8783e-05 -33.1187 11.9327 2.38419e-05 0 -25.0481 58.7918 -13.4265 21.6354 3.57628e-05 -1.78814e-05 4.4067e-05 -4.95264e-06 -102.825 21.979 -2.38419e-05 2.38419e-05 16.8495 -0.00827134 -18.1855 0.0062 0.0497 0.0339 0 0 0 0 0.0215 0 0 0 0 0 0.022 0 0 0 0 0 0.017 0 0 0 0 -0.0068 0.0873 0.0207 0 0 0 0 0.0267 0 0 0 0 0 0.0213 0 0 0 0 0 0.018 0 0 0 0 -0.0067 0.0922 0.0055 0 0 0 0 0.0266 0 0 0 0 0 0.0228 0 0 0 0 0 0.015 0 0 0 0 -0.0067 0.0925 -0.0113 0 0 0 0 0.0247 0 0 0 0 0 0.0221 0 0 0 0 0 0.018 0 0 0 0 -0.0066 0.0935 -0.0272 0 0 0 0 0.0163 0 0 0 0 0 0.0171 0 0 0 0 0 0.018 0 0 0 0 -3.57628e-05 36.4363 2.38419e-05 29.3218 3.41509e-06 21.4231 -17.85 -1.19209e-05 -2.38419e-05 153.065 -55.9975 56.1983 -32.3734 2.38419e-05 1.78814e-05 1.28644e-05 7.5563e-06 150.858 -24.4831 3.57628e-05 0 -4.82429 -0.0144054 -1.47489 -0.0062 0.0497 0.0339 0 0 0 0 0.0215 0 0 0 0 0 0.022 0 0 0 0 0 0.017 0 0 0 0 0.0068 0.0873 0.0207 0 0 0 0 0.0267 0 0 0 0 0 0.0213 0 0 0 0 0 0.018 0 0 0 0 0.0067 0.0922 0.0055 0 0 0 0 0.0266 0 0 0 0 0 0.0228 0 0 0 0 0 0.015 0 0 0 0 0.0067 0.0925 -0.0113 0 0 0 0 0.0247 0 0 0 0 0 0.0221 0 0 0 0 0 0.018 0 0 0 0 0.0066 0.0935 -0.0272 0 0 0 0 0.0163 0 0 0 0 0 0.0171 0 0 0 0 0 0.018 0 0 0 0 -3.57628e-05 36.4363 2.38419e-05 7.21078 6.53699 -0.825216 3.57628e-05 23.2101 -2.38419e-05 1.33802e-05 -1.21129e-05 -1.70755e-06 
